<svg width="21" height="20" viewBox="0 0 21 20" fill="none" xmlns="http://www.w3.org/2000/svg">
<path fill-rule="evenodd" clip-rule="evenodd" d="M1.24742 11.2021C1.24738 11.202 1.24734 11.2017 0.700407 11.3058C0.153479 11.4098 0.153419 11.4095 0.153352 11.4091L0.152699 11.4057L0.151216 11.3976L0.14632 11.37C0.142257 11.3465 0.136675 11.3131 0.13005 11.2704C0.116805 11.1849 0.0993723 11.0622 0.0815923 10.9074C0.046062 10.5982 0.0089722 10.1595 0.00139849 9.63426C-0.0136903 8.58778 0.0879926 7.1763 0.567817 5.75336C1.04938 4.32527 1.91642 2.87418 3.43389 1.78411C4.95138 0.694023 7.07054 0 9.9945 0C12.9189 0 15.0535 0.694176 16.5957 1.78122C18.1374 2.868 19.0409 4.31493 19.5596 5.74093C20.0766 7.16213 20.2158 8.57271 20.2286 9.61947C20.2349 10.1448 20.2095 10.5835 20.1822 10.8929C20.1685 11.0477 20.1543 11.1705 20.1433 11.256C20.1378 11.2988 20.1331 11.3322 20.1297 11.3557L20.1255 11.3834L20.1243 11.3915L20.1238 11.3941C20.1238 11.3944 20.1236 11.3957 19.5742 11.3058C19.0247 11.2158 19.0247 11.2161 19.0247 11.2163L19.0252 11.2125L19.028 11.1941C19.0305 11.177 19.0343 11.1501 19.0389 11.1141C19.0482 11.0421 19.0607 10.934 19.073 10.7949C19.0976 10.5165 19.121 10.1154 19.1152 9.63299C19.1034 8.6643 18.9738 7.38763 18.5132 6.12157C18.0544 4.86032 17.2716 3.61999 15.9542 2.69132C14.6371 1.76293 12.7395 1.11347 9.9945 1.11347C7.24901 1.11347 5.37169 1.76308 4.08351 2.68844C2.79532 3.61381 2.04752 4.84998 1.62292 6.10914C1.19658 7.37346 1.10079 8.64923 1.11476 9.6182C1.12171 10.1007 1.15579 10.5018 1.18779 10.7804C1.20378 10.9195 1.2192 11.0277 1.23037 11.0997C1.23596 11.1357 1.24047 11.1627 1.24346 11.1799L1.24672 11.1984L1.24742 11.2021Z" fill="white"/>
<path fill-rule="evenodd" clip-rule="evenodd" d="M0.000244141 10.1975H5.56761C6.18257 10.1975 6.68109 10.696 6.68109 11.311V19.662H1.11372C0.498763 19.662 0.000244141 19.1635 0.000244141 18.5486V10.1975ZM1.11372 11.311V18.5486H5.56761V11.311H1.11372Z" fill="white"/>
<path fill-rule="evenodd" clip-rule="evenodd" d="M20.2295 10.1975H14.6621C14.0472 10.1975 13.5487 10.696 13.5487 11.311V19.662H19.116C19.731 19.662 20.2295 19.1635 20.2295 18.5486V10.1975ZM19.116 11.311V18.5486H14.6621V11.311H19.116Z" fill="white"/>
</svg>
