<svg width="18" height="15" viewBox="0 0 18 15" fill="none" xmlns="http://www.w3.org/2000/svg">
<path d="M3.89258 8.2285V14.3345C3.89258 14.6985 4.18671 14.9925 4.55052 14.9925C4.9137 14.9925 5.20846 14.6985 5.20846 14.3345V8.2285C5.20846 7.86519 4.9137 7.57056 4.55052 7.57056C4.18671 7.57056 3.89258 7.86488 3.89258 8.2285Z" fill="white"/>
<path d="M1.82746 15H3.27617V7.75058C3.28014 7.71584 3.28647 7.68116 3.28647 7.64555C3.28647 4.51797 5.81089 1.97381 8.91341 1.97381C12.0156 1.97381 14.54 4.51797 14.54 7.64555C14.54 7.69338 14.547 7.73972 14.5541 7.78594V15H16.003C17.0114 15 17.8296 14.1538 17.8296 13.1097V9.3292C17.8296 8.4682 17.2719 7.74283 16.5106 7.51458C16.4405 3.35967 13.0606 0 8.91372 0C4.7657 0 1.3853 3.35998 1.31594 7.51619C0.555634 7.74475 0 8.46951 0 9.32982V13.1097C0 14.1531 0.818127 15 1.82746 15Z" fill="white"/>
<path d="M12.6223 8.2285V14.3345C12.6223 14.6985 12.9169 14.9925 13.2802 14.9925C13.6435 14.9925 13.9381 14.6985 13.9381 14.3345V8.2285C13.9381 7.86519 13.6435 7.57056 13.2802 7.57056C12.9162 7.57056 12.6223 7.86488 12.6223 8.2285Z" fill="white"/>
</svg>
