<svg width="50" height="24" viewBox="0 0 50 24" fill="none" xmlns="http://www.w3.org/2000/svg">
<path d="M10.701 18.5952H8.26667L3.95583 11.9865L2.01172 13.9759V18.5952H0V0H2.01172V11.7842H2.11316L4.10798 9.57574L7.77642 5.63081H10.2277L5.40968 10.7559L10.701 18.5952Z" fill="white"/>
<path d="M22.4502 9.2892C22.2135 8.44627 21.8585 7.7382 21.402 7.14815C20.9456 6.55809 20.3877 6.10291 19.7284 5.78259C19.0691 5.46228 18.3422 5.31055 17.5307 5.31055C16.6178 5.31055 15.8402 5.51285 15.1978 5.9006C14.5554 6.28835 14.0652 6.89527 13.727 7.70448H13.6256V5.63086H11.6139V23.6191H13.6256V16.5047H13.727C14.5047 18.0895 15.7726 18.8987 17.5307 18.8987C18.3422 18.8987 19.0691 18.7469 19.7284 18.4266C20.3877 18.1063 20.9456 17.6511 21.402 17.0779C21.8585 16.4879 22.2135 15.7798 22.4502 14.9369C22.6868 14.0939 22.8221 13.1667 22.8221 12.1215C22.8221 11.0762 22.7037 10.1321 22.4502 9.2892ZM20.6582 13.2173C20.6582 14.3805 20.337 15.3246 19.6777 16.0327C19.0184 16.7408 18.1224 17.1116 16.9898 17.1116C16.5333 17.1116 16.1107 17.0442 15.6881 16.9431C15.2823 16.825 14.9273 16.6565 14.623 16.4204C14.3187 16.2013 14.0821 15.9147 13.913 15.5944C13.744 15.274 13.6425 14.8863 13.6425 14.4648V9.60952C13.6425 9.25549 13.727 8.91831 13.913 8.61485C14.099 8.3114 14.3356 8.04166 14.623 7.8225C14.9273 7.60333 15.2823 7.43474 15.6881 7.29987C16.0938 7.16501 16.5333 7.11443 16.9898 7.11443C18.1393 7.11443 19.0353 7.46846 19.6777 8.19339C20.337 8.90145 20.6582 9.84554 20.6582 11.0088V13.2173Z" fill="white"/>
<path d="M27.5387 16.8081V18.5952H25.7467C25.0367 18.5952 24.5126 18.3928 24.1407 18.0051C23.7857 17.6173 23.5997 17.1116 23.5997 16.5047V0H25.6115V16.8081H27.5387Z" fill="white"/>
<path d="M38.0876 16.8082V9.69379C38.0876 8.32823 37.648 7.24927 36.7858 6.49063C35.9068 5.71513 34.6896 5.34424 33.1005 5.34424C31.934 5.34424 30.9535 5.59712 30.1759 6.08602C29.3983 6.57492 28.8404 7.18184 28.4854 7.8899L29.7025 9.01944C30.0576 8.42938 30.4971 7.95734 31.0212 7.60331C31.5452 7.24927 32.2045 7.08069 32.9991 7.08069C34.0472 7.08069 34.8079 7.33357 35.3151 7.80561C35.8222 8.29451 36.0758 9.00258 36.0758 9.91295V11.1942H33.5062C31.6128 11.1942 30.2097 11.5145 29.3137 12.172C28.4177 12.8295 27.9613 13.7567 27.9613 14.9874C27.9613 16.2012 28.3332 17.1453 29.1109 17.8534C29.8716 18.5615 30.9366 18.9155 32.3229 18.9155C33.2357 18.9155 34.0134 18.7132 34.6727 18.3086C35.332 17.904 35.8053 17.2971 36.0758 16.5047H36.2111C36.2956 17.1116 36.4985 17.6005 36.8197 18.0051C37.1409 18.4097 37.6818 18.612 38.4426 18.612H39.5752V16.8082H38.0876ZM36.0758 14.8188C36.0758 15.156 35.9913 15.4595 35.8222 15.7461C35.6532 16.0327 35.4165 16.2855 35.1122 16.5047C34.8079 16.7239 34.4529 16.8925 34.0303 17.0105C33.6077 17.1285 33.1512 17.1791 32.6441 17.1791C31.8495 17.1791 31.224 17.0105 30.7676 16.6564C30.3111 16.3024 30.0745 15.8135 30.0745 15.1729V14.6502C30.0745 14.0096 30.3449 13.5376 30.869 13.2004C31.3931 12.8632 32.2383 12.6946 33.4048 12.6946H36.0758V14.8188Z" fill="white"/>
<path d="M49.6 5.63087L43.7846 21.5961C43.6325 21.9838 43.4803 22.3041 43.3282 22.557C43.176 22.8099 42.9901 23.0291 42.7703 23.1808C42.5506 23.3325 42.2801 23.4337 41.9589 23.5011C41.6377 23.5685 41.2319 23.6023 40.7586 23.6023H39.7274V21.8152H41.756L42.7365 19.0504L37.8678 5.61401H39.8964L43.0239 14.4143L43.6325 16.5216H43.7677L44.4778 14.4143L47.6221 5.61401H49.6V5.63087Z" fill="white"/>
</svg>
