<svg width="16" height="15" viewBox="0 0 16 15" fill="none" xmlns="http://www.w3.org/2000/svg">
<path d="M11.6364 12.8187C11.6364 13.1221 11.2891 13.3681 10.8607 13.3681H0.775741C0.347289 13.3681 0 13.1221 0 12.8187V5.67523C0 5.37172 0.347289 5.12573 0.775741 5.12573H10.8607C11.2891 5.12573 11.6364 5.37179 11.6364 5.67523V12.8187Z" fill="white"/>
<path d="M2.90888 4.84853C3.97999 4.84853 4.84828 3.98023 4.84828 2.90913C4.84828 1.83803 3.97999 0.969727 2.90888 0.969727C1.83778 0.969727 0.969482 1.83803 0.969482 2.90913C0.969482 3.98023 1.83778 4.84853 2.90888 4.84853Z" fill="white"/>
<path d="M8.2425 4.84852C9.58138 4.84852 10.6668 3.76314 10.6668 2.42426C10.6668 1.08538 9.58138 0 8.2425 0C6.90361 0 5.81824 1.08538 5.81824 2.42426C5.81824 3.76314 6.90361 4.84852 8.2425 4.84852Z" fill="white"/>
<path d="M15.9999 13.6107C15.9999 13.6107 15.9353 14.0955 15.4827 14.0955C15.0302 14.0955 12.1211 11.3819 12.1211 11.0248V7.4692C12.1211 7.11215 14.9656 4.39844 15.4827 4.39844C15.9999 4.39844 15.9999 4.8833 15.9999 4.8833V13.6107Z" fill="white"/>
</svg>
